 <svg  version="1.0" xmlns="http://www.w3.org/2000/svg"  width="300.000000pt" height="300.000000pt" viewBox="0 0 300.000000 300.000000"  preserveAspectRatio="xMidYMid meet">  <g transform="translate(0.000000,300.000000) scale(0.100000,-0.100000)" fill="#d26590" stroke="none"> <path d="M1390 2084 c-203 -54 -350 -275 -311 -466 24 -116 149 -318 329 -534 47 -57 89 -103 93 -102 19 7 200 237 274 348 128 192 163 292 145 404 -41 253 -287 415 -530 350z m267 -64 c244 -113 303 -431 113 -620 -187 -188 -506 -132 -617 108 -40 86 -50 166 -30 247 60 242 314 368 534 265z m-363 -711 c-2 -4 5 -5 15 -2 10 3 32 -3 47 -14 23 -15 48 -18 144 -18 106 1 119 3 164 28 27 15 55 27 62 27 7 0 15 6 17 13 3 7 6 8 6 1 1 -6 -10 -28 -24 -48 -14 -20 -25 -40 -25 -45 0 -14 -36 -41 -45 -34 -4 5 -5 2 -1 -5 6 -10 -58 -100 -94 -132 -3 -3 -16 -20 -29 -37 -28 -41 -42 -35 -101 44 -24 32 -49 63 -55 69 -48 53 -95 121 -95 137 0 10 -4 17 -10 17 -5 0 -14 9 -20 20 -10 19 -9 19 19 2 16 -9 28 -20 25 -23z"/> <path d="M1381 1991 c-281 -105 -296 -501 -22 -630 47 -22 70 -26 141 -26 72 0 93 4 141 28 70 34 132 96 167 167 23 47 27 68 27 140 0 76 -3 92 -33 152 -58 118 -152 179 -287 185 -62 3 -92 -1 -134 -16z m275 -57 c102 -49 132 -187 58 -267 -46 -50 -77 -59 -196 -58 l-109 1 2 -81 c3 -75 1 -83 -20 -100 -29 -24 -53 -24 -82 0 -24 19 -24 21 -27 245 l-3 226 25 25 c24 24 29 25 172 25 114 0 153 -4 180 -16z m-401 -452 c-22 -22 -75 113 -75 192 0 54 17 113 39 140 7 9 10 16 6 16 -5 0 0 9 11 21 19 21 19 19 22 -171 1 -106 0 -195 -3 -198z m552 158 c-5 -84 -29 -136 -93 -202 -33 -34 -51 -43 -77 -39 -5 1 -6 -2 -3 -7 9 -14 -44 -34 -106 -39 -64 -6 -144 11 -152 33 -3 8 -1 14 4 14 5 0 18 10 30 22 16 17 20 35 20 85 0 77 5 81 120 80 67 0 94 5 126 21 44 22 89 79 100 127 4 17 9 34 12 40 12 20 24 -63 19 -135z"/> <path d="M1338 1904 c-5 -4 -8 -106 -8 -226 0 -210 1 -218 20 -218 18 0 20 8 22 93 l3 92 125 5 c137 5 160 13 190 63 36 59 20 135 -37 173 -23 16 -51 20 -168 22 -77 2 -143 0 -147 -4z m308 -67 c33 -39 31 -81 -6 -118 l-29 -30 -118 3 -118 3 -3 79 c-2 56 1 82 10 88 7 5 64 7 126 6 111 -3 115 -4 138 -31z"/> <path d="M1410 1780 l0 -40 100 0 c89 0 100 2 110 20 8 14 8 26 0 40 -10 18 -21 20 -110 20 l-100 0 0 -40z m176 -3 c2 -15 -8 -17 -72 -17 -71 0 -74 1 -64 20 9 17 19 19 72 16 48 -2 62 -6 64 -19z"/> <path d="M1305 1063 c-118 -14 -195 -25 -225 -34 -61 -18 -90 -31 -90 -41 0 -17 84 -46 185 -64 138 -24 487 -25 636 -1 104 16 199 47 199 65 0 18 -95 47 -200 61 -184 24 -172 25 -204 -19 -46 -62 -101 -111 -117 -105 -8 4 -41 38 -73 76 -32 38 -64 68 -70 68 -6 -1 -24 -4 -41 -6z m504 -32 c79 -13 163 -40 156 -51 -4 -7 -27 -14 -90 -26 -20 -5 -58 -10 -125 -18 -59 -7 -180 -9 -186 -3 -10 10 70 108 84 102 7 -2 10 -1 7 5 -6 10 58 6 154 -9z m-427 -15 c6 -10 18 -26 27 -35 24 -24 32 -49 18 -54 -29 -9 -251 15 -337 38 -8 2 -23 4 -32 4 -10 1 -18 6 -18 11 0 26 152 58 258 56 60 -2 76 -5 84 -20z"/> </g> </svg> 