<?xml version="1.0" standalone="no"?>
<!DOCTYPE svg PUBLIC "-//W3C//DTD SVG 20010904//EN"
 "http://www.w3.org/TR/2001/REC-SVG-20010904/DTD/svg10.dtd">
<svg version="1.0" xmlns="http://www.w3.org/2000/svg"
 width="1500.000000pt" height="1500.000000pt" viewBox="0 0 1500.000000 1500.000000"
 preserveAspectRatio="xMidYMid meet">
<metadata>
Created by potrace 1.10, written by Peter Selinger 2001-2011
</metadata>
<g transform="translate(0.000000,1500.000000) scale(0.100000,-0.100000)"
fill="#93255f" stroke="none">
<path d="M6615 10930 c-27 -4 -79 -10 -115 -14 -216 -22 -542 -134 -745 -255
-250 -149 -512 -411 -659 -657 -56 -93 -142 -274 -157 -329 -4 -16 -19 -61
-33 -98 -14 -37 -26 -80 -26 -95 -1 -15 -7 -38 -15 -52 -8 -14 -14 -48 -15
-76 0 -28 -7 -68 -15 -87 -21 -50 -21 -383 -1 -453 8 -27 19 -69 25 -94 23
-88 42 -148 66 -205 7 -16 27 -66 45 -110 79 -200 160 -359 281 -555 5 -8 26
-46 48 -85 22 -38 44 -75 50 -82 6 -7 11 -14 11 -17 0 -5 127 -194 224 -334
28 -40 58 -86 67 -101 8 -16 22 -36 30 -44 16 -18 66 -85 177 -237 42 -58 93
-125 112 -150 44 -56 213 -263 220 -270 3 -3 29 -36 58 -75 30 -38 89 -110
132 -160 43 -49 133 -153 200 -230 67 -77 126 -150 131 -162 13 -36 39 -27 67
25 9 17 63 81 119 144 56 62 134 151 173 198 39 47 80 96 92 110 22 26 112
135 150 183 13 15 30 36 39 46 9 10 46 59 82 107 36 49 78 103 92 119 14 17
33 38 41 47 7 9 14 20 14 23 0 4 12 22 28 41 15 18 46 59 70 91 24 32 75 101
114 153 60 81 106 146 153 221 5 9 32 49 60 90 27 41 52 79 55 84 3 6 23 37
45 70 51 78 165 265 165 272 0 3 12 24 28 47 42 63 151 289 212 441 17 44 38
95 46 113 8 18 14 40 14 50 0 9 7 26 15 36 8 11 15 30 15 42 0 12 7 38 15 57
8 20 15 52 15 70 0 19 7 54 15 77 17 48 19 230 4 320 -5 30 -13 92 -18 136 -5
45 -14 91 -20 102 -6 11 -11 33 -11 49 -1 15 -7 39 -15 53 -8 14 -14 36 -15
50 0 15 -4 30 -8 35 -5 6 -21 45 -36 87 -23 68 -97 229 -129 283 -73 122 -197
282 -299 385 -80 82 -301 261 -348 283 -8 4 -37 20 -65 37 -27 16 -75 41 -105
56 -30 14 -63 31 -74 36 -38 20 -183 70 -221 77 -23 4 -47 11 -55 16 -8 5 -35
12 -60 16 -25 4 -63 12 -85 17 -105 26 -386 46 -470 32z m-117 -102 c-6 -18
-28 -21 -28 -4 0 9 7 16 16 16 9 0 14 -5 12 -12z m-53 -18 c3 -5 -3 -10 -14
-10 -12 0 -21 5 -21 10 0 6 6 10 14 10 8 0 18 -4 21 -10z m-87 -27 c-10 -2
-26 -2 -35 0 -10 3 -2 5 17 5 19 0 27 -2 18 -5z m-128 -31 c0 -11 -51 -35 -58
-28 -2 3 -2 12 1 21 7 15 57 22 57 7z m700 -13 c58 -6 125 -17 149 -25 25 -8
57 -14 72 -14 15 0 30 -4 33 -9 4 -5 25 -12 49 -16 23 -4 51 -14 62 -21 11 -8
27 -14 37 -14 9 0 55 -18 102 -40 47 -22 88 -40 93 -40 14 0 198 -122 280
-185 90 -70 246 -222 291 -286 76 -107 172 -254 172 -263 0 -6 20 -51 45 -101
24 -49 45 -98 45 -107 0 -9 6 -29 14 -45 8 -15 21 -55 31 -88 9 -33 21 -73 27
-90 11 -34 23 -122 38 -282 8 -79 8 -143 0 -220 -6 -59 -13 -128 -16 -153 -2
-25 -12 -70 -20 -100 -9 -30 -23 -80 -31 -110 -8 -30 -21 -67 -29 -82 -8 -14
-14 -35 -14 -47 0 -23 -95 -222 -128 -269 -12 -16 -22 -33 -22 -36 0 -5 -60
-97 -70 -106 -3 -3 -16 -18 -28 -35 -71 -94 -176 -205 -275 -288 -47 -40 -142
-108 -167 -120 -8 -4 -28 -16 -45 -26 -16 -11 -82 -45 -145 -77 -63 -31 -123
-61 -132 -65 -10 -5 -26 -9 -36 -9 -10 0 -27 -7 -38 -15 -10 -8 -32 -15 -47
-15 -16 0 -38 -5 -50 -12 -45 -24 -207 -48 -365 -54 -170 -7 -312 4 -427 33
-33 8 -86 20 -117 26 -31 7 -63 18 -70 25 -6 6 -20 12 -30 12 -9 0 -34 7 -55
16 -21 9 -54 24 -73 32 -103 45 -219 111 -328 186 -61 43 -322 293 -322 309 0
4 -24 38 -53 75 -99 125 -203 327 -249 482 -5 19 -14 39 -19 44 -5 6 -9 20 -9
32 0 12 -6 44 -14 70 -64 223 -64 570 0 800 8 28 14 59 14 70 0 10 7 28 15 38
8 11 15 30 15 42 0 13 5 26 10 29 6 3 10 13 10 22 0 14 92 209 122 258 7 11
26 43 42 70 49 82 163 223 252 310 80 78 233 199 299 235 33 18 71 41 84 51
13 11 28 19 33 19 9 0 127 52 160 70 10 6 25 10 34 10 8 0 25 6 37 12 21 12
50 21 182 54 33 8 112 22 175 29 63 8 124 17 135 19 24 5 123 -1 265 -15z
m-795 -19 c4 -6 -7 -10 -24 -10 -17 0 -31 5 -31 10 0 6 11 10 24 10 14 0 28
-4 31 -10z m-80 -30 c-3 -5 -15 -10 -26 -10 -10 0 -19 5 -19 10 0 6 12 10 26
10 14 0 23 -4 19 -10z m-65 -20 c0 -5 -12 -10 -26 -10 -14 0 -23 4 -19 10 3 6
15 10 26 10 10 0 19 -4 19 -10z m1580 -15 c0 -9 -6 -12 -15 -9 -8 4 -12 10 -9
15 8 14 24 10 24 -6z m-1667 -12 c12 -11 -14 -33 -39 -33 -26 0 -30 10 -12 28
13 13 41 16 51 5z m1717 -23 c0 -5 -7 -10 -15 -10 -8 0 -15 5 -15 10 0 6 7 10
15 10 8 0 15 -4 15 -10z m-1790 -45 c0 -8 -4 -15 -10 -15 -5 0 -10 7 -10 15 0
8 5 15 10 15 6 0 10 -7 10 -15z m-72 -13 c2 -7 -7 -12 -22 -12 -27 0 -35 15
-13 23 17 7 30 3 35 -11z m-41 -48 c3 -9 -5 -26 -23 -43 -31 -30 -64 -46 -64
-32 0 5 -3 16 -6 25 -7 19 41 66 68 66 10 0 21 -7 25 -16z m-117 -69 c0 -8 5
-15 10 -15 6 0 10 -4 10 -10 0 -5 -5 -10 -12 -10 -7 0 -24 -12 -39 -26 l-26
-25 -7 26 c-7 29 -1 45 19 45 7 0 15 7 19 15 3 8 10 15 16 15 5 0 10 -7 10
-15z m-82 -88 c4 -21 -25 -34 -40 -19 -8 8 -8 16 2 27 16 19 34 15 38 -8z
m-64 -43 c10 -25 7 -30 -18 -42 -15 -7 -26 -21 -28 -37 -4 -33 -22 -33 -26 -1
-2 17 3 28 17 36 12 6 21 19 21 29 0 32 23 42 34 15z m-84 -116 c0 -25 -27
-58 -47 -58 -10 0 -12 7 -8 23 4 12 9 30 11 40 8 26 44 22 44 -5z m-89 -68
c21 -12 23 -18 10 -39 -7 -11 -12 -10 -29 4 -11 10 -18 24 -15 31 6 17 9 17
34 4z m-46 -80 c14 23 23 8 9 -17 -7 -16 -14 -33 -14 -39 0 -5 -13 -24 -29
-40 -16 -17 -33 -42 -36 -57 -4 -14 -13 -31 -21 -38 -8 -6 -14 -21 -14 -33 0
-11 -7 -30 -15 -40 -8 -11 -15 -28 -15 -38 0 -9 -13 -24 -30 -33 -16 -9 -30
-20 -30 -25 0 -6 -7 -10 -15 -10 -23 0 -20 15 18 85 9 17 26 49 37 72 11 23
25 45 30 48 6 3 10 15 10 25 0 11 9 24 20 30 13 7 20 21 20 40 0 16 6 33 13
37 8 4 17 16 20 27 6 14 10 16 21 7 10 -8 16 -9 21 -1z m-212 -446 c-9 -76
-40 -208 -50 -211 -7 -3 -9 3 -6 16 3 12 -2 32 -11 45 -22 34 -4 112 37 164
14 18 32 9 30 -14z m-72 -307 c-18 -18 -25 1 -11 30 l14 28 4 -24 c2 -13 -1
-28 -7 -34z m3597 21 c-4 -27 -28 -36 -28 -10 0 20 8 32 22 32 5 0 8 -10 6
-22z m-3614 -145 c-10 -103 -9 -190 5 -253 14 -63 23 -210 14 -210 -5 0 -22
42 -38 93 -28 87 -30 101 -30 258 0 171 6 199 42 199 13 0 14 -13 7 -87z
m3623 -115 c-2 -13 -4 -5 -4 17 -1 22 1 32 4 23 2 -10 2 -28 0 -40z m-3581
-392 c7 -29 -4 -72 -16 -60 -4 5 -10 26 -13 47 -4 28 -2 37 8 37 8 0 17 -11
21 -24z m376 -789 c9 -7 20 -31 24 -52 6 -36 6 -39 -9 -26 -17 13 -47 67 -47
83 0 11 12 10 32 -5z m2759 -80 c-16 -16 -26 0 -10 19 9 11 15 12 17 4 2 -6
-1 -17 -7 -23z m-2691 -35 c0 -26 11 -34 27 -20 12 9 28 -3 83 -63 38 -41 70
-77 70 -81 0 -4 14 -5 31 -1 31 6 31 6 24 -27 -7 -32 -7 -33 22 -27 22 4 34 1
46 -14 9 -10 23 -19 31 -19 8 0 16 -3 18 -7 2 -5 15 -15 29 -23 15 -8 44 -27
66 -43 22 -15 62 -35 90 -45 28 -10 57 -23 65 -29 7 -6 27 -14 43 -18 66 -15
95 -27 95 -41 0 -8 6 -15 13 -15 6 -1 28 -2 47 -4 19 -1 60 -10 90 -19 54 -17
108 -25 315 -47 135 -14 359 3 492 37 64 17 99 22 101 15 9 -26 104 10 100 38
-2 12 10 18 52 26 30 6 90 27 133 48 43 20 82 37 87 37 5 0 15 6 22 13 63 59
93 78 115 74 16 -3 27 1 33 13 5 10 34 34 64 54 30 20 58 41 61 46 3 6 15 10
25 10 10 0 21 8 24 18 8 26 45 59 91 82 40 20 58 19 37 -2 -7 -7 -12 -24 -12
-39 0 -28 -66 -119 -86 -119 -6 0 -14 -14 -18 -32 -3 -17 -27 -56 -51 -87 -25
-31 -58 -71 -73 -89 -15 -19 -29 -39 -31 -45 -2 -7 -9 -19 -16 -27 -7 -8 -15
-27 -19 -42 -9 -40 -56 -80 -83 -73 -23 5 -32 -8 -13 -20 19 -12 10 -35 -35
-94 -25 -32 -45 -64 -45 -70 0 -6 -24 -35 -54 -64 -29 -29 -61 -67 -69 -84 -9
-17 -30 -44 -47 -59 -16 -16 -30 -32 -30 -37 0 -10 -110 -145 -144 -176 -14
-14 -26 -32 -26 -40 0 -9 -11 -26 -24 -38 -18 -17 -26 -20 -36 -10 -10 10 -12
9 -7 -5 3 -9 -1 -22 -9 -28 -8 -7 -14 -17 -14 -23 0 -21 -64 -77 -87 -77 -14
0 -23 -6 -23 -15 0 -8 -6 -15 -14 -15 -24 0 -30 -22 -11 -36 22 -17 13 -41
-20 -54 -16 -6 -25 -17 -25 -30 0 -17 -4 -20 -22 -15 -16 6 -20 4 -15 -7 3 -9
-16 -35 -49 -68 -30 -29 -54 -57 -54 -61 0 -5 -10 -17 -22 -29 -25 -23 -58
-27 -58 -7 0 8 -11 19 -24 25 -13 6 -55 47 -92 91 -37 45 -71 81 -76 81 -5 0
-15 15 -23 34 -8 19 -24 37 -35 41 -23 7 -26 25 -7 44 10 11 7 12 -16 7 -22
-5 -29 -2 -38 18 -6 13 -22 29 -35 35 -13 6 -24 19 -24 30 0 10 -11 26 -25 35
-14 9 -25 23 -25 31 0 8 -6 18 -12 22 -18 11 -97 108 -133 163 -37 55 -52 73
-92 112 -18 18 -33 38 -33 45 0 8 -7 16 -15 19 -8 4 -15 11 -15 18 0 6 -9 17
-20 24 -11 7 -20 21 -20 32 0 15 -7 20 -26 20 -25 0 -26 2 -20 35 5 27 4 35
-8 35 -8 0 -45 39 -83 88 -37 48 -76 93 -85 100 -10 7 -18 21 -18 30 0 9 -16
37 -35 61 -19 24 -35 49 -35 55 0 6 -21 33 -45 59 -28 29 -45 57 -45 72 0 14
-8 29 -20 35 -11 6 -20 15 -20 21 0 6 -16 29 -35 52 -19 22 -35 49 -35 59 0
10 -7 21 -15 24 -8 4 -15 14 -15 24 0 10 -7 25 -15 34 -8 8 -15 24 -15 35 0
12 6 21 15 21 8 0 15 -8 15 -18z"/>
<path d="M6550 10534 c-14 -2 -56 -9 -95 -15 -65 -10 -251 -62 -285 -80 -8 -4
-33 -16 -55 -25 -164 -69 -357 -204 -485 -340 -59 -63 -195 -241 -211 -277 -5
-12 -18 -35 -29 -52 -11 -16 -22 -37 -26 -45 -3 -8 -19 -45 -35 -81 -16 -36
-29 -72 -29 -80 0 -8 -4 -19 -9 -24 -13 -16 -41 -126 -62 -251 -26 -157 -26
-370 1 -519 20 -107 42 -194 59 -225 5 -9 12 -31 16 -50 13 -64 130 -285 180
-340 10 -11 28 -36 39 -54 18 -30 182 -203 218 -231 123 -96 234 -175 243
-175 2 0 46 -20 97 -44 92 -43 228 -88 363 -122 99 -25 498 -25 565 -1 25 9
59 17 75 17 30 0 102 20 160 45 17 7 53 21 80 30 129 46 307 163 480 315 24
20 107 117 151 175 78 101 194 301 194 332 0 7 10 36 23 65 54 121 92 345 92
538 0 215 -42 426 -120 595 -13 28 -33 73 -46 100 -12 28 -33 64 -45 82 -13
17 -24 35 -24 39 0 12 -161 213 -207 257 -137 132 -234 203 -398 289 -94 50
-231 100 -343 125 -90 21 -140 25 -307 28 -110 2 -211 2 -225 -1z m378 -79
c18 -9 41 -14 52 -10 12 4 26 2 33 -3 7 -5 26 -12 42 -15 17 -3 50 -10 75 -16
25 -6 55 -13 68 -16 41 -10 23 -21 -55 -35 -51 -9 -183 -14 -383 -16 -168 -2
-320 -6 -338 -9 -21 -4 -39 -1 -49 6 -8 7 -35 14 -59 14 -88 3 -66 32 54 69
46 14 100 26 120 27 20 1 48 4 62 8 14 5 97 9 185 10 130 1 167 -2 193 -14z
m297 -125 c-3 -5 -15 -10 -25 -10 -10 0 -22 5 -25 10 -4 6 7 10 25 10 18 0 29
-4 25 -10z m47 -74 c73 -14 189 -58 219 -83 8 -7 20 -13 25 -13 5 0 42 -27 82
-59 75 -61 165 -163 189 -216 7 -16 17 -37 22 -45 11 -19 34 -72 54 -125 17
-44 38 -239 31 -295 -8 -78 -16 -117 -30 -147 -8 -17 -14 -34 -14 -39 0 -4
-14 -37 -31 -73 -42 -89 -127 -200 -191 -249 -29 -23 -60 -47 -69 -55 -9 -8
-43 -28 -75 -44 -182 -93 -241 -100 -775 -99 l-356 1 1 -330 c1 -374 4 -358
-84 -446 -68 -68 -117 -90 -205 -92 -53 -1 -79 3 -98 16 -15 9 -32 17 -39 17
-18 0 -95 75 -126 124 l-27 41 -3 985 c-2 748 0 996 9 1030 16 58 127 171 191
193 62 22 1188 24 1300 3z m-1573 -793 c0 -290 3 -607 5 -703 3 -96 2 -208 -2
-248 -5 -40 -4 -152 1 -249 8 -131 7 -180 -1 -194 -19 -30 -15 -59 8 -59 10 0
24 -9 30 -20 20 -38 -12 -55 -44 -22 -57 58 -76 84 -76 102 0 12 -7 20 -17 20
-10 0 -31 20 -48 47 -16 26 -40 56 -52 67 -13 11 -23 25 -23 31 0 7 -9 20 -20
30 -11 10 -20 25 -20 34 0 9 -9 33 -20 54 -11 20 -20 43 -20 51 0 8 -7 16 -15
20 -10 3 -15 19 -15 46 0 30 -4 40 -16 40 -14 0 -16 8 -10 55 6 50 4 56 -11
53 -15 -3 -18 4 -17 47 0 28 -4 53 -10 57 -18 12 -45 180 -45 289 -1 104 36
350 59 390 5 9 12 33 15 53 4 20 11 38 15 41 5 3 11 23 15 45 4 22 16 52 28
67 12 15 27 42 33 59 6 18 33 69 60 114 27 44 55 92 62 106 7 13 21 24 31 24
23 0 33 13 55 70 22 56 36 65 52 35 9 -18 13 -153 13 -552z m2275 293 c4 -23
13 -36 28 -39 15 -4 19 -11 14 -26 -3 -12 -9 -30 -12 -41 -5 -14 -2 -20 10
-20 9 0 16 5 16 10 0 6 7 10 15 10 17 0 21 -26 4 -32 -12 -4 27 -78 42 -78 5
0 9 -20 9 -44 0 -26 6 -48 15 -56 8 -7 15 -23 15 -37 0 -13 8 -40 19 -61 20
-41 29 -86 36 -182 3 -36 7 -99 11 -140 6 -80 -8 -212 -31 -295 -7 -27 -19
-79 -25 -115 -7 -36 -21 -77 -31 -92 -11 -15 -19 -38 -19 -52 0 -33 -18 -43
-35 -20 -13 18 -14 18 -15 2 0 -10 5 -18 10 -18 16 0 12 -57 -5 -64 -8 -3 -15
-15 -15 -27 0 -11 -14 -36 -32 -54 -17 -19 -32 -46 -34 -60 -2 -15 -13 -37
-26 -51 -44 -45 -58 -64 -58 -77 0 -7 -16 -30 -35 -51 -19 -21 -35 -45 -35
-53 0 -10 -7 -14 -20 -10 -14 4 -20 0 -20 -11 0 -10 -26 -35 -57 -57 -32 -22
-83 -64 -114 -92 -30 -29 -60 -53 -66 -53 -6 0 -16 -7 -23 -15 -7 -8 -27 -15
-44 -15 -26 0 -34 -5 -43 -30 -10 -27 -14 -29 -43 -23 -24 4 -35 2 -41 -9 -5
-9 -35 -26 -66 -38 -32 -13 -66 -30 -75 -38 -10 -8 -25 -11 -38 -7 -11 4 -27
2 -34 -5 -12 -9 -52 -18 -156 -36 -206 -34 -430 -24 -585 27 -33 10 -68 19
-78 19 -11 0 -30 9 -44 20 -14 11 -35 20 -47 20 -11 0 -34 9 -51 20 -16 11
-36 20 -43 20 -7 0 -29 11 -50 24 -20 13 -54 30 -75 37 -43 15 -67 46 -43 55
7 3 32 0 54 -6 58 -15 173 10 228 50 23 16 49 30 57 30 9 0 18 13 22 30 8 37
21 46 42 28 14 -11 15 -10 9 8 -4 13 0 30 12 45 29 37 34 79 37 309 2 118 6
242 10 276 10 93 2 91 358 87 180 -2 337 1 395 8 53 6 113 12 132 14 19 2 60
13 90 24 30 12 64 21 76 21 12 0 27 6 33 14 6 7 25 16 41 19 30 7 91 59 103
90 4 9 20 20 37 23 21 5 30 12 30 26 0 10 7 21 15 24 8 4 15 10 15 15 0 5 7
17 16 27 39 42 94 126 94 142 0 10 6 25 14 32 7 8 17 24 20 36 4 12 11 22 16
22 4 0 11 20 14 45 4 24 11 47 17 50 5 4 9 25 9 49 0 23 4 46 9 52 13 12 -6
291 -21 321 -8 17 -8 30 2 52 16 40 26 39 34 -3z"/>
<path d="M6016 10051 c-13 -8 -28 -22 -35 -33 -9 -14 -12 -246 -12 -948 0
-1015 -1 -988 57 -1010 14 -6 42 -8 61 -4 62 12 64 28 62 423 -1 363 2 395 44
429 13 11 121 14 534 15 l518 2 75 34 c95 43 152 80 212 139 68 66 132 196
153 305 53 288 -142 577 -440 649 -78 18 -1198 18 -1229 -1z m187 -70 c36 -14
34 -37 -5 -55 -46 -21 -84 -58 -101 -98 -18 -43 -16 -635 2 -684 16 -43 92
-104 130 -104 16 0 32 -4 35 -9 3 -4 105 -8 226 -8 122 -1 224 -4 227 -7 13
-13 -13 -25 -57 -26 -25 -1 -103 -1 -175 0 -160 1 -275 -13 -291 -34 -6 -9
-21 -16 -33 -16 -11 0 -21 -6 -21 -12 0 -7 -13 -32 -28 -54 l-28 -41 0 -323
c1 -256 -2 -326 -12 -337 -23 -23 -35 -15 -29 21 3 18 1 65 -3 102 -5 38 -9
148 -9 244 0 96 0 184 0 195 -1 171 1 518 4 650 2 94 4 222 4 286 0 92 3 119
16 129 13 11 13 14 1 24 -10 7 -16 31 -17 64 -2 41 2 56 17 70 47 44 80 49
147 23z m257 -11 c0 -5 -7 -10 -15 -10 -8 0 -15 5 -15 10 0 6 7 10 15 10 8 0
15 -4 15 -10z m555 0 c-3 -5 -16 -10 -28 -9 -21 0 -21 1 -2 9 28 12 37 12 30
0z m90 0 c3 -5 -3 -10 -14 -10 -12 0 -21 5 -21 10 0 6 6 10 14 10 8 0 18 -4
21 -10z m199 -26 c9 -3 16 -10 16 -15 0 -14 -34 -11 -56 6 -19 14 -19 14 3 15
12 0 28 -3 37 -6z m-121 -69 c20 -8 49 -15 65 -15 16 0 35 -7 42 -15 7 -8 18
-15 24 -15 27 0 115 -92 148 -157 104 -198 26 -431 -177 -533 l-69 -35 -495
-3 c-273 -2 -506 0 -517 2 -12 3 -29 22 -38 41 -15 31 -17 76 -16 350 0 173 3
322 6 330 4 9 23 27 43 40 l36 25 456 0 c383 0 462 -2 492 -15z m274 -20 c3
-9 3 -18 0 -22 -11 -10 -57 7 -57 22 0 20 49 20 57 0z m57 -51 c10 -26 -5 -39
-21 -19 -7 11 -13 22 -13 27 0 15 28 8 34 -8z m86 -149 c0 -8 -4 -15 -10 -15
-5 0 -10 7 -10 15 0 8 5 15 10 15 6 0 10 -7 10 -15z m-1 -187 c-1 -42 -1 -42
-10 -13 -5 17 -7 36 -4 43 9 24 15 11 14 -30z m-19 -108 c0 -21 -15 -27 -25
-10 -7 12 2 30 16 30 5 0 9 -9 9 -20z m-10 -100 c0 -11 -4 -20 -10 -20 -5 0
-10 9 -10 20 0 11 5 20 10 20 6 0 10 -9 10 -20z m-130 -144 c0 -16 -18 -31
-27 -22 -8 8 5 36 17 36 5 0 10 -6 10 -14z m-145 -56 c-3 -5 -15 -10 -26 -10
-10 0 -19 5 -19 10 0 6 12 10 26 10 14 0 23 -4 19 -10z m-50 -40 c3 -5 -1 -10
-9 -10 -8 0 -18 5 -21 10 -3 6 1 10 9 10 8 0 18 -4 21 -10z m-384 -15 c-1 -14
-123 -13 -128 2 -3 8 16 11 63 10 37 -1 66 -6 65 -12z m57 4 c-2 -6 -8 -10
-13 -10 -5 0 -11 4 -13 10 -2 6 4 11 13 11 9 0 15 -5 13 -11z m97 -4 c0 -12
-40 -19 -61 -11 -9 3 -12 11 -9 16 8 14 70 9 70 -5z m95 5 c0 -5 -9 -10 -20
-10 -11 0 -20 5 -20 10 0 6 9 10 20 10 11 0 20 -4 20 -10z"/>
<path d="M6352 9490 c0 -171 1 -190 16 -190 309 -4 774 3 802 12 142 48 187
214 84 313 -58 55 -60 55 -497 55 l-404 0 -1 -190z m788 107 c41 -2 51 -13 43
-44 -4 -19 -1 -23 16 -23 12 0 21 5 21 11 0 5 5 7 11 4 7 -5 5 -15 -5 -31 -9
-13 -16 -39 -16 -59 0 -19 -4 -35 -10 -35 -5 0 -10 5 -10 10 0 20 -27 9 -38
-15 -20 -44 -46 -47 -377 -45 -170 1 -318 2 -327 3 -23 2 -30 40 -26 136 l3
73 35 13 c27 10 107 12 340 9 168 -3 321 -6 340 -7z"/>
<path d="M6105 7300 c-3 -5 3 -10 14 -10 12 0 21 5 21 10 0 6 -6 10 -14 10 -8
0 -18 -4 -21 -10z"/>
<path d="M6015 6285 c-5 -2 -71 -8 -145 -14 -287 -24 -615 -67 -820 -106 -183
-35 -452 -114 -466 -136 -3 -5 -14 -9 -25 -9 -26 0 -129 -76 -129 -95 0 -17
97 -85 121 -85 9 0 22 -7 29 -15 7 -8 20 -15 29 -15 9 0 25 -7 35 -15 11 -8
28 -15 38 -15 10 0 26 -4 36 -9 23 -12 81 -26 232 -57 274 -56 364 -72 485
-85 98 -11 244 -28 350 -41 50 -6 178 -15 285 -19 107 -5 299 -13 425 -18 182
-8 607 -3 765 8 8 1 97 5 198 11 100 5 187 12 194 16 6 4 59 11 117 15 125 8
279 28 461 59 25 4 83 13 130 20 82 11 228 42 280 60 14 4 59 18 100 30 95 28
116 37 204 82 80 41 92 54 82 91 -5 20 -24 34 -89 65 -129 61 -154 72 -170 72
-8 0 -28 7 -43 15 -16 8 -44 15 -61 15 -18 0 -33 5 -33 10 0 6 -12 10 -28 10
-15 0 -43 5 -62 11 -32 9 -110 25 -250 50 -30 5 -95 14 -145 20 -141 16 -237
28 -270 34 -16 3 -86 9 -155 15 -69 5 -181 14 -248 21 -105 10 -125 10 -132
-2 -24 -37 -184 -229 -335 -398 -72 -80 -143 -161 -158 -180 -15 -18 -44 -44
-63 -57 l-35 -24 -42 18 c-41 19 -82 58 -182 177 -27 32 -59 68 -71 79 -11 12
-56 62 -98 111 -42 50 -93 108 -112 130 -19 22 -55 66 -81 98 -44 55 -47 57
-92 56 -25 0 -50 -2 -56 -4z m1650 -75 c77 -5 162 -13 188 -18 27 -5 57 -7 68
-5 10 3 29 -1 42 -10 23 -15 50 -19 232 -36 99 -9 156 -19 267 -47 32 -8 77
-14 102 -14 26 0 48 -6 56 -15 7 -8 23 -15 35 -15 12 0 28 -7 35 -15 7 -8 29
-15 50 -15 22 0 60 -11 89 -26 49 -26 51 -29 51 -68 0 -48 -13 -57 -140 -96
-41 -13 -84 -26 -95 -30 -45 -17 -147 -40 -176 -40 -17 0 -70 -10 -118 -21
-47 -12 -122 -22 -166 -24 -56 -1 -95 -9 -128 -24 -27 -11 -58 -19 -71 -15
-12 3 -55 -2 -96 -10 -41 -8 -106 -15 -145 -14 -38 0 -108 -3 -155 -6 -47 -4
-132 -10 -190 -13 -58 -3 -130 -7 -160 -9 -49 -4 -259 -7 -317 -5 -18 1 -23 7
-23 29 0 31 86 144 139 181 17 12 31 28 31 34 0 7 32 45 70 84 38 40 86 97
105 128 21 32 51 64 75 77 21 13 43 33 49 45 12 25 37 31 106 26 28 -3 113 -8
190 -13z m-1504 -65 c35 -42 88 -101 117 -132 28 -30 52 -59 52 -65 0 -17 64
-90 93 -104 15 -8 27 -21 27 -29 0 -8 8 -30 17 -49 14 -31 18 -33 28 -19 13
18 35 10 35 -13 0 -8 -9 -14 -20 -14 -11 0 -20 -4 -20 -9 0 -16 27 -31 44 -25
9 3 23 1 31 -6 21 -18 19 -50 -3 -50 -10 0 -27 -7 -38 -15 -12 -9 -32 -12 -54
-9 -33 5 -105 10 -540 33 -96 6 -191 14 -210 20 -19 6 -80 13 -135 16 -142 9
-163 12 -225 24 -30 6 -100 17 -155 24 -55 7 -110 18 -122 25 -12 7 -35 12
-52 12 -16 0 -33 5 -36 10 -3 6 -32 10 -64 10 -44 0 -64 5 -82 21 -15 13 -31
18 -45 15 -27 -7 -54 2 -54 18 0 14 -90 37 -117 30 -17 -5 -19 -1 -15 25 2 19
0 31 -7 31 -6 0 -11 9 -11 20 0 11 6 20 13 20 8 0 22 9 32 20 11 12 31 20 50
20 20 0 35 6 39 15 3 8 12 15 21 15 9 0 51 11 93 24 96 30 148 41 287 61 61 9
130 21 155 26 38 9 106 21 256 46 18 3 41 0 53 -6 16 -9 27 -8 50 4 17 8 56
15 88 15 32 0 65 5 73 10 8 5 76 10 151 10 l136 0 64 -75z"/>
<path d="M13457 1523 c-12 -11 -8 -23 8 -23 8 0 15 7 15 15 0 16 -12 20 -23 8z"/>
</g>
</svg>
