 <svg  version="1.0" xmlns="http://www.w3.org/2000/svg"  width="300.000000pt" height="300.000000pt" viewBox="0 0 300.000000 300.000000"  preserveAspectRatio="xMidYMid meet">  <g transform="translate(0.000000,300.000000) scale(0.100000,-0.100000)" fill="#ad40af" stroke="none"> <path d="M1390 2084 c-149 -40 -270 -165 -304 -314 -9 -38 -16 -83 -16 -100 0 -79 78 -241 195 -404 65 -92 225 -286 235 -286 7 0 109 122 193 231 124 162 215 329 230 425 15 94 -34 239 -110 324 -104 115 -272 165 -423 124z m220 -44 c104 -29 209 -129 250 -237 32 -85 26 -215 -15 -298 -37 -76 -104 -143 -180 -181 -76 -37 -204 -46 -283 -20 -192 64 -306 269 -256 461 37 140 158 255 298 285 46 10 133 5 186 -10z m-330 -24 c0 -2 -8 -10 -17 -17 -16 -13 -17 -12 -4 4 13 16 21 21 21 13z m-49 -49 c-10 -9 -11 -8 -5 6 3 10 9 15 12 12 3 -3 0 -11 -7 -18z m-31 -31 c0 -2 -7 -9 -15 -16 -13 -11 -14 -10 -9 4 5 14 24 23 24 12z m-46 -61 c-9 -14 -18 -25 -21 -25 -5 0 5 18 20 38 17 22 18 13 1 -13z m-29 -65 c-4 -12 -9 -19 -12 -17 -3 3 -2 15 2 27 4 12 9 19 12 17 3 -3 2 -15 -2 -27z m-28 -157 c-2 -16 -4 -5 -4 22 0 28 2 40 4 28 2 -13 2 -35 0 -50z m153 -296 c0 3 8 -4 19 -15 10 -12 22 -18 26 -14 5 4 6 0 3 -8 -4 -12 1 -16 21 -15 14 0 25 -4 24 -10 -2 -16 193 -26 257 -13 35 7 97 36 105 48 5 8 11 7 21 -1 12 -9 13 -9 9 3 -4 9 0 18 8 21 27 10 13 -28 -33 -93 -26 -36 -53 -64 -59 -62 -7 1 -10 -2 -7 -7 7 -11 -82 -117 -96 -113 -5 1 -7 -1 -5 -5 3 -5 -5 -23 -18 -41 l-22 -32 -46 50 c-25 27 -44 50 -42 50 2 0 -8 12 -22 28 -14 15 -37 43 -51 62 -14 19 -37 47 -50 62 -14 16 -21 31 -17 39 5 8 4 10 -3 5 -7 -4 -12 -1 -12 7 0 7 -11 24 -25 37 -14 13 -25 28 -25 33 0 6 -7 20 -17 31 -9 12 0 4 20 -16 21 -21 37 -35 37 -31z m531 0 c-8 -8 -11 -7 -11 4 0 9 3 19 7 23 4 4 9 2 11 -4 3 -7 -1 -17 -7 -23z"/> <path d="M1381 1991 c-193 -72 -278 -297 -181 -480 37 -69 91 -119 166 -153 74 -34 199 -33 275 3 69 33 133 97 168 169 22 46 26 69 26 140 0 76 -4 93 -33 152 -58 118 -153 179 -287 185 -62 3 -92 -1 -134 -16z m180 -7 c42 -9 39 -9 -41 -14 -47 -3 -96 -3 -110 -1 -23 4 -21 6 14 16 42 12 70 12 137 -1z m98 -54 c103 -52 128 -173 55 -260 -44 -51 -71 -60 -194 -60 l-110 0 0 -80 c0 -69 -3 -82 -22 -100 -27 -25 -49 -25 -76 -2 -20 16 -21 29 -24 248 -4 296 -19 274 184 274 128 0 154 -3 187 -20z m-394 -310 c-1 -111 2 -167 9 -172 7 -5 8 -8 0 -8 -14 0 -51 52 -73 103 -23 54 -34 206 -13 194 4 -3 7 10 8 29 0 21 8 40 20 50 10 8 13 12 5 8 -16 -8 -8 9 18 40 15 17 16 15 22 -30 3 -27 5 -123 4 -214z m526 178 c17 -33 22 -62 23 -124 1 -70 -3 -89 -28 -142 -16 -34 -33 -62 -38 -62 -4 0 -8 -6 -8 -12 -1 -7 -17 -25 -37 -40 -26 -20 -40 -25 -49 -17 -8 7 -14 6 -20 -2 -4 -8 -3 -9 4 -5 7 4 12 3 12 -3 0 -14 -88 -41 -141 -42 -26 -1 -78 8 -120 22 -73 24 -73 24 -36 30 63 10 77 31 77 116 l0 73 99 0 c64 0 110 5 132 14 33 15 103 87 105 110 0 6 2 13 4 16 7 15 7 77 -1 93 -6 9 -7 17 -5 17 3 0 15 -19 27 -42z"/> <path d="M1338 1904 c-5 -4 -8 -106 -8 -226 0 -210 1 -218 20 -218 18 0 20 8 22 93 l3 92 127 5 c108 4 131 8 155 26 72 54 70 160 -4 210 -23 16 -51 20 -168 22 -77 2 -143 0 -147 -4z m42 -20 c0 -3 -6 -12 -14 -19 -12 -12 -15 -12 -19 -1 -3 8 -3 17 0 20 8 8 33 8 33 0z m222 -24 c71 -20 90 -89 38 -141 l-29 -30 -118 3 -118 3 -3 79 c-2 57 1 82 10 87 19 12 176 11 220 -1z m-202 -191 c0 -4 -9 -9 -20 -12 -11 -3 -24 -16 -29 -29 -9 -22 -10 -22 -9 7 1 57 6 64 33 51 14 -6 25 -14 25 -17z m-53 -101 c-3 -7 -5 -2 -5 12 0 14 2 19 5 13 2 -7 2 -19 0 -25z"/> <path d="M1412 1778 c2 -24 6 -42 11 -40 4 1 47 2 97 2 79 0 91 2 100 20 8 14 8 26 0 40 -10 18 -21 20 -111 20 l-100 0 3 -42z m191 1 c5 -17 3 -18 -9 -8 -12 10 -15 10 -12 -2 2 -11 -14 -15 -74 -17 -78 -3 -78 -3 -78 23 0 25 1 25 84 25 76 0 84 -2 89 -21z"/> <path d="M1250 1059 c-128 -14 -260 -50 -260 -71 0 -17 84 -46 180 -64 133 -25 513 -25 654 -1 100 18 186 48 186 65 0 24 -120 55 -278 72 l-93 10 -27 -32 c-67 -82 -108 -119 -122 -113 -8 4 -41 38 -73 76 -33 38 -66 68 -75 68 -10 -1 -51 -5 -92 -10z m131 -36 c18 -16 26 -30 22 -40 -4 -10 -2 -14 4 -10 5 3 17 -2 26 -13 25 -29 1 -39 -83 -35 -120 6 -238 23 -245 35 -3 5 -12 7 -20 4 -15 -6 -55 12 -55 25 0 11 65 29 165 45 114 19 152 17 186 -11z m384 17 c33 -5 78 -12 100 -15 22 -3 49 -10 60 -15 11 -4 29 -11 40 -15 37 -13 -60 -48 -136 -49 -37 -1 -65 -4 -62 -8 8 -15 -187 -18 -206 -4 -11 8 -13 8 -7 -1 4 -7 2 -13 -3 -13 -17 0 -13 15 12 37 12 12 35 37 51 57 31 40 47 43 151 26z"/> </g> </svg> 